<svg width="510" height="52" viewBox="0 0 510 52" fill="none" xmlns="http://www.w3.org/2000/svg">
<path d="M11.45 27.18L26.15 50H37.98L22.02 27.18H11.45ZM0.32 0.999997V50H10.33V0.999997H0.32ZM6.41 9.54H16.14C17.9133 9.54 19.43 9.84333 20.69 10.45C21.9967 11.01 23 11.85 23.7 12.97C24.4 14.0433 24.75 15.35 24.75 16.89C24.75 18.43 24.4 19.76 23.7 20.88C23 21.9533 21.9967 22.7933 20.69 23.4C19.43 23.96 17.9133 24.24 16.14 24.24H6.41V32.22H16.77C20.6433 32.22 23.9333 31.5667 26.64 30.26C29.3467 28.9533 31.4233 27.1333 32.87 24.8C34.3167 22.42 35.04 19.69 35.04 16.61C35.04 13.4833 34.3167 10.7533 32.87 8.42C31.4233 6.08666 29.3467 4.26666 26.64 2.96C23.9333 1.65333 20.6433 0.999997 16.77 0.999997H6.41V9.54ZM51.4982 25.5C51.4982 22.3733 52.1515 19.5967 53.4582 17.17C54.7649 14.7433 56.5615 12.83 58.8482 11.43C61.1349 10.03 63.7949 9.33 66.8282 9.33C69.9082 9.33 72.5915 10.03 74.8782 11.43C77.1649 12.83 78.9382 14.7433 80.1982 17.17C81.4582 19.5967 82.0882 22.3733 82.0882 25.5C82.0882 28.6267 81.4349 31.4033 80.1282 33.83C78.8682 36.2567 77.0949 38.17 74.8082 39.57C72.5215 40.97 69.8615 41.67 66.8282 41.67C63.7949 41.67 61.1349 40.97 58.8482 39.57C56.5615 38.17 54.7649 36.2567 53.4582 33.83C52.1515 31.4033 51.4982 28.6267 51.4982 25.5ZM40.9282 25.5C40.9282 29.1867 41.5582 32.6167 42.8182 35.79C44.0782 38.9167 45.8749 41.6467 48.2082 43.98C50.5415 46.3133 53.2715 48.1333 56.3982 49.44C59.5715 50.7 63.0482 51.33 66.8282 51.33C70.6082 51.33 74.0615 50.7 77.1882 49.44C80.3615 48.1333 83.0915 46.3133 85.3782 43.98C87.7115 41.6467 89.5082 38.9167 90.7682 35.79C92.0749 32.6167 92.7282 29.1867 92.7282 25.5C92.7282 21.7667 92.0749 18.36 90.7682 15.28C89.5082 12.1533 87.6882 9.44666 85.3082 7.16C82.9749 4.87333 80.2449 3.12333 77.1182 1.91C73.9915 0.649997 70.5615 0.0199968 66.8282 0.0199968C63.1415 0.0199968 59.7115 0.649997 56.5382 1.91C53.4115 3.12333 50.6815 4.87333 48.3482 7.16C46.0149 9.44666 44.1949 12.1533 42.8882 15.28C41.5815 18.36 40.9282 21.7667 40.9282 25.5ZM107.956 25.15H116.776C120.043 25.15 122.913 24.7067 125.386 23.82C127.86 22.8867 129.796 21.5333 131.196 19.76C132.596 17.9867 133.296 15.8633 133.296 13.39C133.296 10.59 132.596 8.28 131.196 6.46C129.796 4.64 127.86 3.28667 125.386 2.4C122.913 1.46666 120.043 0.999997 116.776 0.999997H100.466V50H117.826C121.466 50 124.663 49.51 127.416 48.53C130.17 47.55 132.293 46.0333 133.786 43.98C135.326 41.9267 136.096 39.29 136.096 36.07C136.096 33.6433 135.583 31.5667 134.556 29.84C133.576 28.1133 132.223 26.7133 130.496 25.64C128.77 24.52 126.81 23.7033 124.616 23.19C122.47 22.6767 120.206 22.42 117.826 22.42H107.956V27.88H116.916C118.176 27.88 119.343 28.02 120.416 28.3C121.49 28.5333 122.423 28.9533 123.216 29.56C124.056 30.12 124.686 30.8433 125.106 31.73C125.573 32.57 125.806 33.5967 125.806 34.81C125.806 36.49 125.41 37.8667 124.616 38.94C123.87 40.0133 122.82 40.8067 121.466 41.32C120.113 41.7867 118.596 42.02 116.916 42.02H110.476V8.98H115.866C118.06 8.98 119.786 9.47 121.046 10.45C122.353 11.43 123.006 12.8533 123.006 14.72C123.006 15.9333 122.703 16.9833 122.096 17.87C121.536 18.7567 120.72 19.4333 119.646 19.9C118.573 20.3667 117.313 20.6 115.866 20.6H107.956V25.15ZM152.397 25.5C152.397 22.3733 153.05 19.5967 154.357 17.17C155.663 14.7433 157.46 12.83 159.747 11.43C162.033 10.03 164.693 9.33 167.727 9.33C170.807 9.33 173.49 10.03 175.777 11.43C178.063 12.83 179.837 14.7433 181.097 17.17C182.357 19.5967 182.987 22.3733 182.987 25.5C182.987 28.6267 182.333 31.4033 181.027 33.83C179.767 36.2567 177.993 38.17 175.707 39.57C173.42 40.97 170.76 41.67 167.727 41.67C164.693 41.67 162.033 40.97 159.747 39.57C157.46 38.17 155.663 36.2567 154.357 33.83C153.05 31.4033 152.397 28.6267 152.397 25.5ZM141.827 25.5C141.827 29.1867 142.457 32.6167 143.717 35.79C144.977 38.9167 146.773 41.6467 149.107 43.98C151.44 46.3133 154.17 48.1333 157.297 49.44C160.47 50.7 163.947 51.33 167.727 51.33C171.507 51.33 174.96 50.7 178.087 49.44C181.26 48.1333 183.99 46.3133 186.277 43.98C188.61 41.6467 190.407 38.9167 191.667 35.79C192.973 32.6167 193.627 29.1867 193.627 25.5C193.627 21.7667 192.973 18.36 191.667 15.28C190.407 12.1533 188.587 9.44666 186.207 7.16C183.873 4.87333 181.143 3.12333 178.017 1.91C174.89 0.649997 171.46 0.0199968 167.727 0.0199968C164.04 0.0199968 160.61 0.649997 157.437 1.91C154.31 3.12333 151.58 4.87333 149.247 7.16C146.913 9.44666 145.093 12.1533 143.787 15.28C142.48 18.36 141.827 21.7667 141.827 25.5ZM226.621 33.55L219.481 38.59C220.555 40.8767 222.048 43 223.961 44.96C225.875 46.92 228.115 48.4833 230.681 49.65C233.295 50.77 236.095 51.33 239.081 51.33C241.321 51.33 243.445 50.98 245.451 50.28C247.505 49.6267 249.348 48.67 250.981 47.41C252.615 46.1033 253.898 44.5167 254.831 42.65C255.765 40.7833 256.231 38.66 256.231 36.28C256.231 34.18 255.881 32.3367 255.181 30.75C254.528 29.1167 253.595 27.7167 252.381 26.55C251.215 25.3367 249.885 24.31 248.391 23.47C246.945 22.63 245.428 21.93 243.841 21.37C241.368 20.53 239.315 19.7133 237.681 18.92C236.048 18.08 234.835 17.2167 234.041 16.33C233.248 15.3967 232.851 14.3233 232.851 13.11C232.851 11.8967 233.341 10.8467 234.321 9.96C235.301 9.02667 236.771 8.56 238.731 8.56C240.225 8.56 241.555 8.86333 242.721 9.47C243.888 10.03 244.915 10.8 245.801 11.78C246.735 12.7133 247.528 13.7633 248.181 14.93L256.021 10.59C255.181 8.86333 253.991 7.20667 252.451 5.62C250.958 3.98667 249.068 2.65666 246.781 1.63C244.541 0.556663 241.858 0.0199968 238.731 0.0199968C235.698 0.0199968 232.945 0.579997 230.471 1.7C228.045 2.77333 226.108 4.33666 224.661 6.39C223.261 8.39666 222.561 10.8 222.561 13.6C222.561 15.9333 223.005 17.94 223.891 19.62C224.778 21.2533 225.898 22.6533 227.251 23.82C228.605 24.94 230.028 25.8733 231.521 26.62C233.061 27.32 234.415 27.88 235.581 28.3C237.775 29.14 239.618 29.9333 241.111 30.68C242.651 31.38 243.795 32.1967 244.541 33.13C245.335 34.0633 245.731 35.3 245.731 36.84C245.731 38.6133 245.101 40.0133 243.841 41.04C242.581 42.0667 240.948 42.58 238.941 42.58C237.215 42.58 235.605 42.2067 234.111 41.46C232.618 40.7133 231.241 39.6633 229.981 38.31C228.768 36.9567 227.648 35.37 226.621 33.55ZM272.442 25.5C272.442 22.2333 273.166 19.41 274.612 17.03C276.106 14.65 278.042 12.83 280.422 11.57C282.802 10.2633 285.392 9.61 288.192 9.61C290.526 9.61 292.602 9.91333 294.422 10.52C296.242 11.1267 297.876 11.9433 299.322 12.97C300.816 13.9967 302.099 15.1167 303.172 16.33V5.06C301.166 3.47333 298.972 2.23666 296.592 1.35C294.259 0.46333 291.296 0.0199968 287.702 0.0199968C283.969 0.0199968 280.492 0.626664 277.272 1.84C274.099 3.05333 271.322 4.80333 268.942 7.09C266.609 9.37667 264.789 12.0833 263.482 15.21C262.222 18.29 261.592 21.72 261.592 25.5C261.592 29.28 262.222 32.7333 263.482 35.86C264.789 38.94 266.609 41.6233 268.942 43.91C271.322 46.1967 274.099 47.9467 277.272 49.16C280.492 50.3733 283.969 50.98 287.702 50.98C291.296 50.98 294.259 50.5367 296.592 49.65C298.972 48.7633 301.166 47.5267 303.172 45.94V34.67C302.099 35.8833 300.816 37.0033 299.322 38.03C297.876 39.0567 296.242 39.8733 294.422 40.48C292.602 41.0867 290.526 41.39 288.192 41.39C285.392 41.39 282.802 40.76 280.422 39.5C278.042 38.1933 276.106 36.35 274.612 33.97C273.166 31.5433 272.442 28.72 272.442 25.5ZM316.423 28.44H352.403V19.41H316.423V28.44ZM346.033 0.999997V50H356.043V0.999997H346.033ZM313.133 0.999997V50H323.143V0.999997H313.133ZM374.36 25.5C374.36 22.3733 375.013 19.5967 376.32 17.17C377.626 14.7433 379.423 12.83 381.71 11.43C383.996 10.03 386.656 9.33 389.69 9.33C392.77 9.33 395.453 10.03 397.74 11.43C400.026 12.83 401.8 14.7433 403.06 17.17C404.32 19.5967 404.95 22.3733 404.95 25.5C404.95 28.6267 404.296 31.4033 402.99 33.83C401.73 36.2567 399.956 38.17 397.67 39.57C395.383 40.97 392.723 41.67 389.69 41.67C386.656 41.67 383.996 40.97 381.71 39.57C379.423 38.17 377.626 36.2567 376.32 33.83C375.013 31.4033 374.36 28.6267 374.36 25.5ZM363.79 25.5C363.79 29.1867 364.42 32.6167 365.68 35.79C366.94 38.9167 368.736 41.6467 371.07 43.98C373.403 46.3133 376.133 48.1333 379.26 49.44C382.433 50.7 385.91 51.33 389.69 51.33C393.47 51.33 396.923 50.7 400.05 49.44C403.223 48.1333 405.953 46.3133 408.24 43.98C410.573 41.6467 412.37 38.9167 413.63 35.79C414.936 32.6167 415.59 29.1867 415.59 25.5C415.59 21.7667 414.936 18.36 413.63 15.28C412.37 12.1533 410.55 9.44666 408.17 7.16C405.836 4.87333 403.106 3.12333 399.98 1.91C396.853 0.649997 393.423 0.0199968 389.69 0.0199968C386.003 0.0199968 382.573 0.649997 379.4 1.91C376.273 3.12333 373.543 4.87333 371.21 7.16C368.876 9.44666 367.056 12.1533 365.75 15.28C364.443 18.36 363.79 21.7667 363.79 25.5ZM431.098 25.5C431.098 22.3733 431.751 19.5967 433.058 17.17C434.364 14.7433 436.161 12.83 438.448 11.43C440.734 10.03 443.394 9.33 446.428 9.33C449.508 9.33 452.191 10.03 454.478 11.43C456.764 12.83 458.538 14.7433 459.798 17.17C461.058 19.5967 461.688 22.3733 461.688 25.5C461.688 28.6267 461.034 31.4033 459.728 33.83C458.468 36.2567 456.694 38.17 454.408 39.57C452.121 40.97 449.461 41.67 446.428 41.67C443.394 41.67 440.734 40.97 438.448 39.57C436.161 38.17 434.364 36.2567 433.058 33.83C431.751 31.4033 431.098 28.6267 431.098 25.5ZM420.528 25.5C420.528 29.1867 421.158 32.6167 422.418 35.79C423.678 38.9167 425.474 41.6467 427.808 43.98C430.141 46.3133 432.871 48.1333 435.998 49.44C439.171 50.7 442.648 51.33 446.428 51.33C450.208 51.33 453.661 50.7 456.788 49.44C459.961 48.1333 462.691 46.3133 464.978 43.98C467.311 41.6467 469.108 38.9167 470.368 35.79C471.674 32.6167 472.328 29.1867 472.328 25.5C472.328 21.7667 471.674 18.36 470.368 15.28C469.108 12.1533 467.288 9.44666 464.908 7.16C462.574 4.87333 459.844 3.12333 456.718 1.91C453.591 0.649997 450.161 0.0199968 446.428 0.0199968C442.741 0.0199968 439.311 0.649997 436.138 1.91C433.011 3.12333 430.281 4.87333 427.948 7.16C425.614 9.44666 423.794 12.1533 422.488 15.28C421.181 18.36 420.528 21.7667 420.528 25.5ZM480.066 0.999997V50H509.606V41.25H490.076V0.999997H480.066Z" fill="white"/>
</svg>
